<?xml version="1.0" encoding="UTF-8" standalone="no"?>
<svg
   xmlns:dc="http://purl.org/dc/elements/1.1/"
   xmlns:cc="http://creativecommons.org/ns#"
   xmlns:rdf="http://www.w3.org/1999/02/22-rdf-syntax-ns#"
   xmlns:svg="http://www.w3.org/2000/svg"
   xmlns="http://www.w3.org/2000/svg"
   xmlns:sodipodi="http://sodipodi.sourceforge.net/DTD/sodipodi-0.dtd"
   xmlns:inkscape="http://www.inkscape.org/namespaces/inkscape"
   version="1.1"
   x="0px"
   y="0px"
   viewBox="0 0 89.726997 75.922997"
   enable-background="new 0 0 100 100"
   xml:space="preserve"
   id="svg8"
   sodipodi:docname="cloud-propia.svg"
   width="89.726997"
   height="75.922997"
   inkscape:version="0.92.4 (5da689c313, 2019-01-14)"><metadata
     id="metadata14"><rdf:RDF><cc:Work
         rdf:about=""><dc:format>image/svg+xml</dc:format><dc:type
           rdf:resource="http://purl.org/dc/dcmitype/StillImage" /></cc:Work></rdf:RDF></metadata><defs
     id="defs12" /><sodipodi:namedview
     pagecolor="#ffffff"
     bordercolor="#666666"
     borderopacity="1"
     objecttolerance="10"
     gridtolerance="10"
     guidetolerance="10"
     inkscape:pageopacity="0"
     inkscape:pageshadow="2"
     inkscape:window-width="2469"
     inkscape:window-height="1411"
     id="namedview10"
     showgrid="false"
     inkscape:zoom="3.776"
     inkscape:cx="18.015509"
     inkscape:cy="44.626509"
     inkscape:window-x="-9"
     inkscape:window-y="-9"
     inkscape:window-maximized="1"
     inkscape:current-layer="svg8" /><path
     d="M 65.264,16.204 C 64.062,9.057 57.858,3.607 50.364,3.607 c -3.125,0 -6.028,0.948 -8.439,2.57 C 37.763,2.353 32.226,0 26.127,0 13.216,0 2.75,10.459 2.75,23.361 c 0,3.341 0.714,6.511 1.978,9.385 C 1.791,36.122 0,40.521 0,45.347 c 0,9.302 6.606,17.061 15.385,18.85 5.831,7.154 14.713,11.726 24.665,11.726 8.465,0 16.151,-3.311 21.849,-8.7 0.732,0.063 1.468,0.112 2.216,0.112 14.145,0 25.612,-11.459 25.612,-25.594 0,-13.749 -10.855,-24.932 -24.463,-25.537 z"
     id="path2"
     inkscape:connector-curvature="0"
     style="fill:#000000;opacity:0.7" /></svg>