<?xml version="1.0" encoding="UTF-8" standalone="no"?>
<!-- Generator: Adobe Illustrator 16.0.0, SVG Export Plug-In . SVG Version: 6.00 Build 0)  -->

<svg
   xmlns:dc="http://purl.org/dc/elements/1.1/"
   xmlns:cc="http://creativecommons.org/ns#"
   xmlns:rdf="http://www.w3.org/1999/02/22-rdf-syntax-ns#"
   xmlns:svg="http://www.w3.org/2000/svg"
   xmlns="http://www.w3.org/2000/svg"
   xmlns:sodipodi="http://sodipodi.sourceforge.net/DTD/sodipodi-0.dtd"
   xmlns:inkscape="http://www.inkscape.org/namespaces/inkscape"
   version="1.1"
   id="Capa_1"
   x="0px"
   y="0px"
   width="42.629px"
   height="42.629px"
   viewBox="0 0 42.629 42.629"
   style="enable-background:new 0 0 42.629 42.629;"
   xml:space="preserve"
   sodipodi:docname="cloud-black-shape-internet-interface-symbol-variant.svg"
   inkscape:version="0.92.4 (5da689c313, 2019-01-14)"><metadata
   id="metadata42"><rdf:RDF><cc:Work
       rdf:about=""><dc:format>image/svg+xml</dc:format><dc:type
         rdf:resource="http://purl.org/dc/dcmitype/StillImage" /></cc:Work></rdf:RDF></metadata><defs
   id="defs40" /><sodipodi:namedview
   pagecolor="#ffffff"
   bordercolor="#666666"
   borderopacity="1"
   objecttolerance="10"
   gridtolerance="10"
   guidetolerance="10"
   inkscape:pageopacity="0"
   inkscape:pageshadow="2"
   inkscape:window-width="2469"
   inkscape:window-height="1411"
   id="namedview38"
   showgrid="false"
   inkscape:zoom="5.5361372"
   inkscape:cx="21.314501"
   inkscape:cy="21.314501"
   inkscape:window-x="-9"
   inkscape:window-y="-9"
   inkscape:window-maximized="1"
   inkscape:current-layer="Capa_1" />
<g
   id="g5"
   style="opacity:0.7">
	<g
   id="_x31_13_92_"
   style="">
		<path
   d="M42.629,25.635c-0.238-4.465-3.418-7.646-7.885-7.886c-0.087-0.004-0.168,0.004-0.254,0.002    c0.1-0.44,0.165-0.887,0.19-1.336c-0.224-4.134-3.166-7.074-7.298-7.297c-2.424-0.13-4.444,1.107-5.741,2.917    c-1.296-1.706-3.311-2.785-5.746-2.917c-4.123-0.222-7.09,3.5-7.295,7.297c-0.024,0.488,0.008,0.957,0.084,1.411    c-0.258-0.037-0.521-0.062-0.789-0.077c-4.457-0.24-7.664,3.783-7.885,7.886c-0.227,4.193,3.32,7.279,7.158,7.812v0.073h29.086    V33.43C39.911,32.811,42.434,29.258,42.629,25.635z"
   id="path2"
   style="" />
	</g>
</g>
<g
   id="g7">
</g>
<g
   id="g9">
</g>
<g
   id="g11">
</g>
<g
   id="g13">
</g>
<g
   id="g15">
</g>
<g
   id="g17">
</g>
<g
   id="g19">
</g>
<g
   id="g21">
</g>
<g
   id="g23">
</g>
<g
   id="g25">
</g>
<g
   id="g27">
</g>
<g
   id="g29">
</g>
<g
   id="g31">
</g>
<g
   id="g33">
</g>
<g
   id="g35">
</g>
</svg>