<?xml version="1.0" encoding="UTF-8" standalone="no"?>
<!-- Generator: Adobe Illustrator 19.0.0, SVG Export Plug-In . SVG Version: 6.00 Build 0)  -->

<svg
   xmlns:dc="http://purl.org/dc/elements/1.1/"
   xmlns:cc="http://creativecommons.org/ns#"
   xmlns:rdf="http://www.w3.org/1999/02/22-rdf-syntax-ns#"
   xmlns:svg="http://www.w3.org/2000/svg"
   xmlns="http://www.w3.org/2000/svg"
   xmlns:sodipodi="http://sodipodi.sourceforge.net/DTD/sodipodi-0.dtd"
   xmlns:inkscape="http://www.inkscape.org/namespaces/inkscape"
   version="1.1"
   id="Layer_1"
   x="0px"
   y="0px"
   viewBox="0 0 420 420"
   style="enable-background:new 0 0 420 420;"
   xml:space="preserve"
   sodipodi:docname="sun.svg"
   inkscape:version="0.92.4 (5da689c313, 2019-01-14)"><metadata
   id="metadata43"><rdf:RDF><cc:Work
       rdf:about=""><dc:format>image/svg+xml</dc:format><dc:type
         rdf:resource="http://purl.org/dc/dcmitype/StillImage" /></cc:Work></rdf:RDF></metadata><defs
   id="defs41" /><sodipodi:namedview
   pagecolor="#ffffff"
   bordercolor="#666666"
   borderopacity="1"
   objecttolerance="10"
   gridtolerance="10"
   guidetolerance="10"
   inkscape:pageopacity="0"
   inkscape:pageshadow="2"
   inkscape:window-width="2469"
   inkscape:window-height="1411"
   id="namedview39"
   showgrid="false"
   inkscape:zoom="0.56190476"
   inkscape:cx="210"
   inkscape:cy="210"
   inkscape:window-x="-9"
   inkscape:window-y="-9"
   inkscape:window-maximized="1"
   inkscape:current-layer="Layer_1" />
<g
   id="g6"
   style="opacity:0.7">
	<polygon
   style="fill:#F5C525"
   points="420,210 375.774,247.857 399.238,301.145 342.926,315.986 340.945,374.184 283.764,363.211    256.724,414.779 210,380 163.276,414.779 136.236,363.211 79.055,374.184 77.073,315.986 20.762,301.144 44.226,247.858 0,210    44.226,172.143 20.762,118.855 77.074,104.014 79.055,45.816 136.236,56.789 163.276,5.221 210,40 256.723,5.221 283.764,56.789    340.945,45.816 342.927,104.014 399.238,118.856 375.774,172.142  "
   id="polygon2" />
	<circle
   style="fill:#F8A805"
   cx="210"
   cy="210"
   r="140"
   id="circle4" />
</g>
<g
   id="g8">
</g>
<g
   id="g10">
</g>
<g
   id="g12">
</g>
<g
   id="g14">
</g>
<g
   id="g16">
</g>
<g
   id="g18">
</g>
<g
   id="g20">
</g>
<g
   id="g22">
</g>
<g
   id="g24">
</g>
<g
   id="g26">
</g>
<g
   id="g28">
</g>
<g
   id="g30">
</g>
<g
   id="g32">
</g>
<g
   id="g34">
</g>
<g
   id="g36">
</g>
</svg>